<?xml version="1.0" standalone="no"?>
<!DOCTYPE svg PUBLIC "-//W3C//DTD SVG 20010904//EN"
 "http://www.w3.org/TR/2001/REC-SVG-20010904/DTD/svg10.dtd">
<svg version="1.0" xmlns="http://www.w3.org/2000/svg"
 width="512.000000pt" height="512.000000pt" viewBox="0 0 512.000000 512.000000"
 preserveAspectRatio="xMidYMid meet">

<g transform="translate(0.000000,512.000000) scale(0.100000,-0.100000)"
fill="#000000" stroke="none">
<path d="M0 2560 l0 -2560 2560 0 2560 0 0 2560 0 2560 -2560 0 -2560 0 0
-2560z m2894 1721 c237 -48 487 -155 676 -289 199 -141 405 -370 519 -577 160
-288 228 -572 218 -908 -8 -278 -60 -489 -182 -732 -83 -165 -172 -291 -305
-428 -337 -350 -775 -537 -1261 -537 -463 0 -876 167 -1212 490 -350 336 -537
775 -537 1260 0 485 187 924 537 1260 271 260 581 414 958 475 137 22 447 14
589 -14z"/>
<path d="M3000 3536 c-98 -41 -128 -58 -138 -78 -11 -25 1 -61 169 -475 99
-246 187 -460 195 -475 8 -15 24 -30 37 -33 18 -5 123 33 283 101 6 3 16 16
23 30 10 22 -10 77 -175 487 -103 254 -193 470 -202 480 -23 26 -56 20 -192
-37z"/>
<path d="M2075 3259 c-11 -4 -64 -52 -119 -107 -76 -77 -98 -106 -98 -127 0
-23 77 -105 455 -482 378 -379 459 -455 482 -455 40 0 238 197 238 237 0 23
-77 104 -454 481 -249 249 -460 454 -469 457 -8 2 -25 1 -35 -4z"/>
<path d="M1661 2257 c-19 -9 -38 -44 -77 -137 -57 -136 -63 -169 -36 -192 9
-9 225 -99 479 -202 410 -165 465 -185 487 -175 14 7 27 17 30 23 68 160 106
265 101 283 -3 13 -18 29 -33 37 -24 12 -919 376 -925 376 -1 0 -13 -6 -26
-13z"/>
</g>
</svg>
